<svg width="50" height="50" viewBox="0 0 50 50" fill="none" xmlns="http://www.w3.org/2000/svg">
<g clip-path="url(#clip0_485_2108)">
<path d="M25 50C38.8071 50 50 38.8071 50 25C50 11.1929 38.8071 0 25 0C11.1929 0 0 11.1929 0 25C0 38.8071 11.1929 50 25 50Z" fill="#F0F0F0"/>
<path d="M25 18.4778H49.1388C48.5119 16.1522 47.5592 13.9607 46.3307 11.9561H25V18.4778Z" fill="#338AF3"/>
<path d="M9.4374 44.5647H40.5617C42.8433 42.7476 44.7999 40.5403 46.3302 38.043H3.66895C5.19932 40.5402 7.15596 42.7476 9.4374 44.5647V44.5647Z" fill="#338AF3"/>
<path d="M25 0V5.43477H40.5622C36.2917 2.03359 30.8837 0 25 0V0Z" fill="#338AF3"/>
<path d="M25 18.4778H49.1388C48.5119 16.1522 47.5592 13.9607 46.3307 11.9561H25V18.4778Z" fill="#338AF3"/>
<path d="M0 25C0 27.2565 0.300781 29.4423 0.86123 31.5218H49.1389C49.6992 29.4423 50 27.2565 50 25H0Z" fill="#338AF3"/>
<path d="M21.7393 14.6314L18.6859 16.0677L20.3118 19.0247L16.9964 18.3905L16.5763 21.7396L14.2671 19.2764L11.9577 21.7396L11.5377 18.3905L8.22227 19.0245L9.84805 16.0676L6.79492 14.6314L9.84814 13.1954L8.22227 10.2384L11.5376 10.8726L11.9578 7.52344L14.2671 9.98672L16.5764 7.52344L16.9964 10.8726L20.3119 10.2384L18.686 13.1955L21.7393 14.6314Z" fill="#FFDA44"/>
</g>
<defs>
<clipPath id="clip0_485_2108">
<rect width="50" height="50" fill="white"/>
</clipPath>
</defs>
</svg>
