<svg width="50" height="50" viewBox="0 0 50 50" fill="none" xmlns="http://www.w3.org/2000/svg">
<g clip-path="url(#clip0_484_1269)">
<path d="M0 25C0 11.193 11.193 0 25 0C38.807 0 50 11.193 50 25L25 27.1739L0 25Z" fill="#FFDA44"/>
<path d="M3.3457 37.4996C7.66846 44.9719 15.747 49.9996 25.0004 49.9996C34.2538 49.9996 42.3323 44.9719 46.6551 37.4996L25.0004 35.8691L3.3457 37.4996Z" fill="#D80027"/>
<path d="M46.6547 37.5C48.7818 33.8229 50 29.5538 50 25H0C0 29.5538 1.21816 33.8229 3.34531 37.5H46.6547Z" fill="#0052B4"/>
<path d="M25.0003 33.6959C29.8027 33.6959 33.6959 29.8027 33.6959 25.0003C33.6959 20.1978 29.8027 16.3047 25.0003 16.3047C20.1978 16.3047 16.3047 20.1978 16.3047 25.0003C16.3047 29.8027 20.1978 33.6959 25.0003 33.6959Z" fill="#FFDA44"/>
<path d="M25.0002 30.4351C22.0034 30.4351 19.5654 27.997 19.5654 25.0003V21.7395C19.5654 18.7427 22.0035 16.3047 25.0002 16.3047C27.9969 16.3047 30.435 18.7428 30.435 21.7395V25.0003C30.435 27.9971 27.997 30.4351 25.0002 30.4351Z" fill="#338AF3"/>
<path d="M33.6961 11.9562H27.1743C27.1743 10.7556 26.201 9.78223 25.0004 9.78223C23.7998 9.78223 22.8265 10.7556 22.8265 11.9562H16.3047C16.3047 13.1568 17.3505 14.1301 18.551 14.1301H18.4786C18.4786 15.3308 19.4519 16.304 20.6525 16.304C20.6525 17.5047 21.6258 18.4779 22.8265 18.4779H27.1743C28.375 18.4779 29.3482 17.5047 29.3482 16.304C30.5489 16.304 31.5222 15.3308 31.5222 14.1301H31.4498C32.6504 14.1301 33.6961 13.1567 33.6961 11.9562V11.9562Z" fill="black"/>
</g>
<defs>
<clipPath id="clip0_484_1269">
<rect width="50" height="50" fill="white"/>
</clipPath>
</defs>
</svg>
