<svg width="50" height="50" viewBox="0 0 50 50" fill="none" xmlns="http://www.w3.org/2000/svg">
<g clip-path="url(#clip0_485_2118)">
<path d="M25 50C38.8071 50 50 38.8071 50 25C50 11.1929 38.8071 0 25 0C11.1929 0 0 11.1929 0 25C0 38.8071 11.1929 50 25 50Z" fill="#F0F0F0"/>
<path d="M33.6959 25.0003C33.6959 27.1742 29.8027 32.609 25.0003 32.609C20.1979 32.609 16.3047 27.1742 16.3047 25.0003C16.3047 20.1978 20.1979 16.3047 25.0003 16.3047C29.8027 16.3047 33.6959 20.1978 33.6959 25.0003Z" fill="#D80027"/>
<path d="M33.6959 25C33.6959 29.8025 29.8027 33.6956 25.0003 33.6956C20.1979 33.6956 16.3047 29.8025 16.3047 25" fill="#0052B4"/>
<path d="M34.2158 32.6865L36.5212 30.3811L38.0582 31.9181L35.7528 34.2235L34.2158 32.6865Z" fill="black"/>
<path d="M30.373 36.5293L32.6785 34.2239L34.2154 35.7609L31.91 38.0663L30.373 36.5293Z" fill="black"/>
<path d="M38.8271 37.2969L41.1326 34.9915L42.6695 36.5284L40.3641 38.8338L38.8271 37.2969Z" fill="black"/>
<path d="M34.9844 41.1396L37.2898 38.8342L38.8268 40.3712L36.5213 42.6766L34.9844 41.1396Z" fill="black"/>
<path d="M36.5215 34.9922L38.8269 32.6868L40.3639 34.2237L38.0584 36.5292L36.5215 34.9922Z" fill="black"/>
<path d="M32.6797 38.834L34.9851 36.5286L36.5221 38.0655L34.2167 40.371L32.6797 38.834Z" fill="black"/>
<path d="M38.8379 17.3184L32.6901 11.1706L34.2271 9.6336L40.3749 15.7814L38.8379 17.3184Z" fill="black"/>
<path d="M32.6885 15.7812L30.3831 13.4758L31.92 11.9389L34.2254 14.2444L32.6885 15.7812Z" fill="black"/>
<path d="M36.5312 19.625L34.2258 17.3196L35.7627 15.7827L38.0681 18.0881L36.5312 19.625Z" fill="black"/>
<path d="M37.2988 11.1699L34.9934 8.86451L36.5304 7.32754L38.8358 9.63296L37.2988 11.1699Z" fill="black"/>
<path d="M41.1436 15.0137L38.8381 12.7083L40.3751 11.1713L42.6805 13.4767L41.1436 15.0137Z" fill="black"/>
<path d="M8.8623 34.9873L15.0101 41.1351L13.4731 42.6721L7.32534 36.5243L8.8623 34.9873Z" fill="black"/>
<path d="M15.0098 36.5234L17.3152 38.8289L15.7783 40.3657L13.4729 38.0603L15.0098 36.5234Z" fill="black"/>
<path d="M11.168 32.6816L13.4734 34.9871L11.9364 36.524L9.631 34.2186L11.168 32.6816Z" fill="black"/>
<path d="M13.4736 30.376L19.6214 36.5238L18.0845 38.0607L11.9367 31.9129L13.4736 30.376Z" fill="black"/>
<path d="M15.0098 8.85938L8.86197 15.0072L7.32501 13.4702L13.4728 7.32241L15.0098 8.85938Z" fill="black"/>
<path d="M17.3154 11.165L11.1676 17.3128L9.63067 15.7759L15.7785 9.62807L17.3154 11.165Z" fill="black"/>
<path d="M19.623 13.4717L13.4753 19.6195L11.9384 18.0826L18.0861 11.9348L19.623 13.4717Z" fill="black"/>
</g>
<defs>
<clipPath id="clip0_485_2118">
<rect width="50" height="50" fill="white"/>
</clipPath>
</defs>
</svg>
