<svg width="50" height="50" viewBox="0 0 50 50" fill="none" xmlns="http://www.w3.org/2000/svg">
<path d="M25 0C38.8071 0 50 11.1929 50 25C50 38.8071 38.8071 50 25 50C11.1929 50 0 38.8071 0 25C0 11.1929 11.1929 0 25 0Z" fill="#F0F0F0"/>
<path d="M49.9996 25C49.9996 38.807 38.8066 50 24.9996 50C20.109 50 15.5471 48.5942 11.6937 46.1669L17.1735 43.8387L9.78223 40.6982L17.1735 37.5579L9.78223 34.4177L17.1735 31.2775L9.78223 28.1378L17.1735 24.9982L9.78223 21.858L17.1735 18.718L9.78223 15.5782L17.1735 12.4382L9.78223 9.29795L17.1735 6.1582L11.6962 3.83125C15.549 1.40508 20.11 0 24.9996 0C38.8066 0 49.9996 11.193 49.9996 25Z" fill="#751A46"/>
</svg>