<svg width="50" height="50" viewBox="0 0 50 50" fill="none" xmlns="http://www.w3.org/2000/svg">
<g clip-path="url(#clip0_485_2046)">
<path d="M25 50C38.8071 50 50 38.8071 50 25C50 11.1929 38.8071 0 25 0C11.1929 0 0 11.1929 0 25C0 38.8071 11.1929 50 25 50Z" fill="#D80027"/>
<path d="M24.9995 36.9561C31.6029 36.9561 36.9561 31.6029 36.9561 24.9995C36.9561 18.3961 31.6029 13.043 24.9995 13.043C18.3961 13.043 13.043 18.3961 13.043 24.9995C13.043 31.6029 18.3961 36.9561 24.9995 36.9561Z" fill="#F0F0F0"/>
<path d="M26.4736 20.4287L28.5248 23.2554L31.8468 22.1782L29.7924 25.0024L31.8434 27.829L28.5225 26.7478L26.4681 29.572L26.4702 26.0797L23.1494 24.9984L26.4715 23.9213L26.4736 20.4287Z" fill="#D80027"/>
<path d="M27.7177 32.0656C23.8157 32.0656 20.6524 28.9023 20.6524 25.0004C20.6524 21.0984 23.8157 17.9352 27.7177 17.9352C28.9343 17.9352 30.0791 18.2428 31.0785 18.7844C29.5106 17.2511 27.3666 16.3047 25.0003 16.3047C20.1979 16.3047 16.3047 20.1979 16.3047 25.0003C16.3047 29.8027 20.1979 33.6959 25.0003 33.6959C27.3666 33.6959 29.5107 32.7495 31.0785 31.2162C30.0791 31.758 28.9343 32.0656 27.7177 32.0656Z" fill="#D80027"/>
</g>
<defs>
<clipPath id="clip0_485_2046">
<rect width="50" height="50" fill="white"/>
</clipPath>
</defs>
</svg>
