<svg width="50" height="50" viewBox="0 0 50 50" fill="none" xmlns="http://www.w3.org/2000/svg">
<g clip-path="url(#clip0_485_2039)">
<path d="M25 50C38.8071 50 50 38.8071 50 25C50 11.1929 38.8071 0 25 0C11.1929 0 0 11.1929 0 25C0 38.8071 11.1929 50 25 50Z" fill="#F0F0F0"/>
<path d="M19.5655 21.7392H49.7886C48.1906 9.47285 37.702 0 25.0002 0C23.1335 0 21.3154 0.206348 19.5654 0.594238V21.7392H19.5655Z" fill="#D80027"/>
<path d="M13.0437 21.7394V3.04004C6.1792 6.78555 1.26494 13.6558 0.211914 21.7395H13.0437V21.7394Z" fill="#D80027"/>
<path d="M13.0437 28.2607H0.211914C1.26494 36.3444 6.1792 43.2146 13.0437 46.9601L13.0437 28.2607Z" fill="#D80027"/>
<path d="M19.5654 28.2608V49.4057C21.3154 49.7936 23.1335 49.9999 25.0002 49.9999C37.702 49.9999 48.1906 40.5271 49.7886 28.2607H19.5654V28.2608Z" fill="#D80027"/>
</g>
<defs>
<clipPath id="clip0_485_2039">
<rect width="50" height="50" fill="white"/>
</clipPath>
</defs>
</svg>
