<svg width="50" height="50" viewBox="0 0 50 50" fill="none" xmlns="http://www.w3.org/2000/svg">
<g clip-path="url(#clip0_485_2083)">
<path d="M50 25.0004C50 21.9424 49.4499 19.013 48.445 16.3048L25 15.2178L1.55498 16.3047C0.550098 19.013 0 21.9424 0 25.0004C0 28.0584 0.550098 30.9878 1.55498 33.696L25 34.783L48.445 33.6961C49.4499 30.9878 50 28.0584 50 25.0004Z" fill="#F0F0F0"/>
<path d="M24.9997 49.9997C35.7488 49.9997 44.9124 43.2153 48.4447 33.6953H1.55469C5.08701 43.2153 14.2506 49.9997 24.9997 49.9997Z" fill="#0052B4"/>
<path d="M1.55469 16.3044H48.4448C44.9124 6.78437 35.7488 0 24.9997 0C14.2506 0 5.08701 6.78437 1.55469 16.3044V16.3044Z" fill="#D80027"/>
<path d="M31.5217 17.391H27.1738L27.8985 11.9562L30.797 9.78223L33.6955 11.9562V16.304L31.5217 17.391Z" fill="#338AF3"/>
<path d="M18.4785 17.391H22.8264L22.1017 11.9562L19.2031 9.78223L16.3047 11.9562V16.304L18.4785 17.391Z" fill="#338AF3"/>
<path d="M27.8988 17.391H22.1016V11.9562L25.0002 9.78223L27.8988 11.9562V17.391Z" fill="#0052B4"/>
<path d="M16.3047 16.3047V28.2611C16.3047 31.1081 17.6799 33.6399 19.801 35.2272L21.3228 34.8464L23.2431 36.7782C23.8109 36.8952 24.3985 36.9568 25.0004 36.9568C25.599 36.9568 26.1837 36.896 26.7485 36.7802L28.9406 34.955L30.1996 35.2236C32.3198 33.6365 33.696 31.1073 33.696 28.2611V16.3047H16.3047Z" fill="#F0F0F0"/>
<path d="M16.3047 16.3047H19.7829V19.7829H16.3047V16.3047Z" fill="#D80027"/>
<path d="M23.2607 16.3047H26.739V19.7829H23.2607V16.3047Z" fill="#D80027"/>
<path d="M30.2178 16.3047H33.696V19.7829H30.2178V16.3047Z" fill="#D80027"/>
<path d="M19.7832 19.7832H23.2614V23.2614H19.7832V19.7832Z" fill="#D80027"/>
<path d="M26.7393 19.7832H30.2175V23.2614H26.7393V19.7832Z" fill="#D80027"/>
<path d="M16.3047 23.2598H19.7829V26.738H16.3047V23.2598Z" fill="#D80027"/>
<path d="M19.7832 26.7383H23.2614V30.2165H19.7832V26.7383Z" fill="#D80027"/>
<path d="M23.2607 23.2598H26.739V26.738H23.2607V23.2598Z" fill="#D80027"/>
<path d="M30.2178 23.2598H33.696V26.738H30.2178V23.2598Z" fill="#D80027"/>
<path d="M26.7393 26.7383H30.2175V30.2165H26.7393V26.7383Z" fill="#D80027"/>
<path d="M23.2607 30.2168H26.739V33.695H23.2607V30.2168Z" fill="#D80027"/>
<path d="M19.7831 30.2168H16.5293C16.8277 31.5098 17.4145 32.6929 18.2189 33.695H19.7831V30.2168Z" fill="#D80027"/>
<path d="M30.2178 33.695H31.7818C32.5865 32.6929 33.173 31.5097 33.4715 30.2168H30.2178V33.695Z" fill="#D80027"/>
<path d="M19.7832 33.6953V35.213C20.7948 35.9742 21.977 36.52 23.2614 36.7819V33.6953H19.7832Z" fill="#D80027"/>
<path d="M26.7393 33.6953V36.7819C28.0237 36.5202 29.2059 35.9742 30.2175 35.213V33.6953H26.7393Z" fill="#D80027"/>
</g>
<defs>
<clipPath id="clip0_485_2083">
<rect width="50" height="50" fill="white"/>
</clipPath>
</defs>
</svg>
