<svg width="50" height="50" viewBox="0 0 50 50" fill="none" xmlns="http://www.w3.org/2000/svg">
<g clip-path="url(#clip0_485_1990)">
<path d="M25 50C38.8071 50 50 38.8071 50 25C50 11.1929 38.8071 0 25 0C11.1929 0 0 11.1929 0 25C0 38.8071 11.1929 50 25 50Z" fill="#F0F0F0"/>
<path d="M50 25C50 38.807 38.807 50 25 50C11.193 50 0 38.807 0 25" fill="#496E2D"/>
<path d="M43.2628 17.3972C42.3688 14.8617 39.953 13.0439 37.1117 13.0439H31.5215C27.9196 13.0439 24.9997 15.9639 24.9997 19.5657C24.9997 20.7425 25.313 21.8734 25.8582 22.8266C23.7823 22.8096 21.8611 22.8409 20.6519 22.8266C20.6519 20.3113 20.6519 17.1072 20.6519 16.4368L20.9087 16.18C22.0616 15.0271 21.6771 13.1056 21.6771 13.1056C21.6771 13.1056 19.7559 12.7213 18.6029 13.8742L17.2593 15.2179H15.7605C12.4588 15.2179 9.78232 17.8944 9.78232 21.1961H14.1302V26.0874C14.1302 26.8028 14.2744 27.4844 14.5351 28.1051L13.0432 29.3482H10.8692V27.1743H8.69531V31.5222H18.4779V35.87H16.304V38.0439H20.6519V33.6961L22.6445 31.3048H27.3548L29.3475 33.6961V35.87H27.1735V38.0439H35.8691V26.0873C35.8691 24.2864 37.3291 22.8265 39.13 22.8265C39.1763 22.8265 39.2222 22.8281 39.2681 22.83C39.178 22.4815 39.13 22.1162 39.13 21.7396C39.1302 19.4105 40.9615 17.5094 43.2628 17.3972V17.3972ZM31.5215 35.8699V31.3047H31.7026L33.6953 33.696V35.8699H31.5215Z" fill="#D80027"/>
</g>
<defs>
<clipPath id="clip0_485_1990">
<rect width="50" height="50" fill="white"/>
</clipPath>
</defs>
</svg>
