<svg width="50" height="50" viewBox="0 0 50 50" fill="none" xmlns="http://www.w3.org/2000/svg">
<g clip-path="url(#clip0_485_2070)">
<path d="M33.696 1.55498C30.9877 0.550098 28.0584 0 25.0004 0C21.9424 0 19.0131 0.550098 16.3048 1.55498L14.1309 25L16.3048 48.445C19.0131 49.45 21.9424 50 25.0004 50C28.0584 50 30.9877 49.45 33.696 48.445L35.8699 25L33.696 1.55498Z" fill="#FFDA44"/>
<path d="M49.9997 24.9996C49.9997 14.2506 43.2153 5.08691 33.6953 1.55469V48.4448C43.2153 44.9123 49.9997 35.7488 49.9997 24.9996V24.9996Z" fill="#D80027"/>
<path d="M0 24.9996C0 35.7488 6.78437 44.9123 16.3044 48.4447V1.55469C6.78437 5.08691 0 14.2506 0 24.9996V24.9996Z" fill="black"/>
</g>
<defs>
<clipPath id="clip0_485_2070">
<rect width="50" height="50" fill="white"/>
</clipPath>
</defs>
</svg>
